{
	"accessors": [
		{
			"bufferView": 0,
			"byteOffset": 0,
			"componentType": 5126,
			"count": 4,
			"max": [
				0.46715328097343445,
				0.0,
				0.5
			],
			"min": [
				-0.46715328097343445,
				0.0,
				-0.5
			],
			"type": "VEC3"
		},
		{
			"bufferView": 1,
			"byteOffset": 0,
			"componentType": 5126,
			"count": 4,
			"type": "VEC3"
		},
		{
			"bufferView": 2,
			"byteOffset": 0,
			"componentType": 5126,
			"count": 4,
			"type": "VEC2"
		},
		{
			"bufferView": 3,
			"byteOffset": 0,
			"componentType": 5123,
			"count": 6,
			"type": "SCALAR"
		}
	],
	"asset": {
		"generator": "Gestaltor 2020.3.1 Zitronensorbet (Beta) Community (dev-e4d2766*)",
		"version": "2.0"
	},
	"bufferViews": [
		{
			"buffer": 0,
			"byteLength": 48,
			"byteOffset": 0
		},
		{
			"buffer": 0,
			"byteLength": 48,
			"byteOffset": 48
		},
		{
			"buffer": 0,
			"byteLength": 32,
			"byteOffset": 96
		},
		{
			"buffer": 0,
			"byteLength": 12,
			"byteOffset": 128
		}
	],
	"buffers": [
		{
			"byteLength": 140,
			"uri": "data:application/octet-stream;base64,"
		}
	],
	"images": [
		{
			"mimeType": "image/png",
			"name": "mikey56-chica",
			"uri": "data:image/png;base64,"
		}
	],
	"materials": [
		{
			"alphaMode": "BLEND",
			"doubleSided": true,
			"emissiveFactor": [
				0.0,
				0.0,
				0.0
			],
			"name": "mikey56-chica",
			"pbrMetallicRoughness": {
				"baseColorTexture": {
					"index": 0,
					"texCoord": 0
				},
				"metallicFactor": 0.0,
				"roughnessFactor": 0.5
			}
		}
	],
	"meshes": [
		{
			"name": "mikey56-chica",
			"primitives": [
				{
					"attributes": {
						"NORMAL": 1,
						"POSITION": 0,
						"TEXCOORD_0": 2
					},
					"indices": 3,
					"material": 0,
					"mode": 4
				}
			]
		}
	],
	"nodes": [
		{
			"name": "Light",
			"rotation": [
				0.16907575726509094,
				0.7558803558349609,
				-0.27217137813568115,
				0.570947527885437
			],
			"translation": [
				4.076245307922363,
				5.903861999511719,
				-1.0054539442062378
			]
		},
		{
			"mesh": 0,
			"name": "mikey56-chica",
			"rotation": [
				0.0,
				0.0,
				0.0,
				1.0
			],
			"scale": [
				2.1,
				2.2,
				1.8
			]
		},
		{
			"name": "main-camera",
			"scale": [
				1.0,
				1.0,
				1.0
			],
			"translation": [
				0.0,
				0.0,
				0.4
			]
		}
	],
	"samplers": [
		{
			"magFilter": 9729,
			"minFilter": 9986
		}
	],
	"scene": 0,
	"scenes": [
		{
			"name": "Scene",
			"nodes": [
				0,
				1,
				2
			]
		}
	],
	"textures": [
		{
			"sampler": 0,
			"source": 0
		}
	]
}